<mxfile host="www.draw.io" modified="2019-12-15T12:37:41.073Z" agent="Mozilla/5.0 (Windows NT 10.0; Win64; x64; rv:71.0) Gecko/20100101 Firefox/71.0" etag="lhqpZ95kPrUm17xFz1vs" version="12.4.2" type="github" pages="1">
  <diagram id="X4KtPScDE5aJx_dzZ8nU" name="Page-1">
    <mxGraphModel dx="1422" dy="791" grid="1" gridSize="10" guides="1" tooltips="1" connect="1" arrows="1" fold="1" page="1" pageScale="1" pageWidth="827" pageHeight="1169" math="0" shadow="0">
      <root>
        <mxCell id="0"/>
        <mxCell id="1" parent="0"/>
        <mxCell id="VTKftnoG7H33NL0N4lO0-1" value="Usługodawca" style="shape=umlActor;verticalLabelPosition=bottom;labelBackgroundColor=#ffffff;verticalAlign=top;html=1;outlineConnect=0;" parent="1" vertex="1">
          <mxGeometry x="80" y="480" width="30" height="60" as="geometry"/>
        </mxCell>
        <mxCell id="VTKftnoG7H33NL0N4lO0-3" value="Tworzenie konta" style="ellipse;whiteSpace=wrap;html=1;" parent="1" vertex="1">
          <mxGeometry x="353" y="450" width="120" height="80" as="geometry"/>
        </mxCell>
        <mxCell id="VTKftnoG7H33NL0N4lO0-4" value="Dodanie nowych kategorii" style="ellipse;whiteSpace=wrap;html=1;" parent="1" vertex="1">
          <mxGeometry x="160" y="260" width="120" height="80" as="geometry"/>
        </mxCell>
        <mxCell id="VTKftnoG7H33NL0N4lO0-5" value="Utworzenie zasięgu działania oferowanych usług" style="ellipse;whiteSpace=wrap;html=1;" parent="1" vertex="1">
          <mxGeometry x="160" y="660" width="120" height="80" as="geometry"/>
        </mxCell>
        <mxCell id="VTKftnoG7H33NL0N4lO0-6" value="Użytkownik" style="shape=umlActor;verticalLabelPosition=bottom;labelBackgroundColor=#ffffff;verticalAlign=top;html=1;outlineConnect=0;" parent="1" vertex="1">
          <mxGeometry x="720" y="390" width="30" height="60" as="geometry"/>
        </mxCell>
        <mxCell id="VTKftnoG7H33NL0N4lO0-7" value="Oceny i opinie" style="ellipse;whiteSpace=wrap;html=1;" parent="1" vertex="1">
          <mxGeometry x="580" y="230" width="120" height="80" as="geometry"/>
        </mxCell>
        <mxCell id="VTKftnoG7H33NL0N4lO0-8" value="Wyszukanie" style="ellipse;whiteSpace=wrap;html=1;" parent="1" vertex="1">
          <mxGeometry x="520" y="660" width="120" height="80" as="geometry"/>
        </mxCell>
        <mxCell id="pVavtnSqjncw0e83FAwv-1" value="" style="endArrow=none;html=1;entryX=1;entryY=1;entryDx=0;entryDy=0;entryPerimeter=0;" parent="1" source="VTKftnoG7H33NL0N4lO0-5" target="VTKftnoG7H33NL0N4lO0-1" edge="1">
          <mxGeometry width="50" height="50" relative="1" as="geometry">
            <mxPoint x="60" y="810" as="sourcePoint"/>
            <mxPoint x="110" y="760" as="targetPoint"/>
          </mxGeometry>
        </mxCell>
        <mxCell id="pVavtnSqjncw0e83FAwv-2" value="" style="endArrow=none;html=1;entryX=0.75;entryY=0.1;entryDx=0;entryDy=0;entryPerimeter=0;" parent="1" source="VTKftnoG7H33NL0N4lO0-4" target="VTKftnoG7H33NL0N4lO0-1" edge="1">
          <mxGeometry width="50" height="50" relative="1" as="geometry">
            <mxPoint x="60" y="810" as="sourcePoint"/>
            <mxPoint x="110" y="760" as="targetPoint"/>
          </mxGeometry>
        </mxCell>
        <mxCell id="pVavtnSqjncw0e83FAwv-3" value="" style="endArrow=none;html=1;entryX=0;entryY=1;entryDx=0;entryDy=0;entryPerimeter=0;exitX=1;exitY=0;exitDx=0;exitDy=0;" parent="1" source="VTKftnoG7H33NL0N4lO0-8" target="VTKftnoG7H33NL0N4lO0-6" edge="1">
          <mxGeometry width="50" height="50" relative="1" as="geometry">
            <mxPoint x="680" y="540" as="sourcePoint"/>
            <mxPoint x="730" y="450" as="targetPoint"/>
          </mxGeometry>
        </mxCell>
        <mxCell id="pVavtnSqjncw0e83FAwv-4" value="" style="endArrow=none;html=1;entryX=0.5;entryY=0;entryDx=0;entryDy=0;entryPerimeter=0;" parent="1" source="VTKftnoG7H33NL0N4lO0-7" target="VTKftnoG7H33NL0N4lO0-6" edge="1">
          <mxGeometry width="50" height="50" relative="1" as="geometry">
            <mxPoint x="60" y="810" as="sourcePoint"/>
            <mxPoint x="110" y="760" as="targetPoint"/>
          </mxGeometry>
        </mxCell>
        <mxCell id="pVavtnSqjncw0e83FAwv-5" value="" style="endArrow=none;html=1;entryX=1;entryY=0.3333333333333333;entryDx=0;entryDy=0;entryPerimeter=0;exitX=0;exitY=0.5;exitDx=0;exitDy=0;" parent="1" source="VTKftnoG7H33NL0N4lO0-3" target="VTKftnoG7H33NL0N4lO0-1" edge="1">
          <mxGeometry width="50" height="50" relative="1" as="geometry">
            <mxPoint x="60" y="810" as="sourcePoint"/>
            <mxPoint x="110" y="760" as="targetPoint"/>
          </mxGeometry>
        </mxCell>
        <mxCell id="pVavtnSqjncw0e83FAwv-7" value="" style="endArrow=none;html=1;entryX=0;entryY=0.3333333333333333;entryDx=0;entryDy=0;entryPerimeter=0;exitX=1;exitY=0.5;exitDx=0;exitDy=0;" parent="1" source="VTKftnoG7H33NL0N4lO0-3" target="VTKftnoG7H33NL0N4lO0-6" edge="1">
          <mxGeometry width="50" height="50" relative="1" as="geometry">
            <mxPoint x="60" y="810" as="sourcePoint"/>
            <mxPoint x="110" y="760" as="targetPoint"/>
          </mxGeometry>
        </mxCell>
      </root>
    </mxGraphModel>
  </diagram>
</mxfile>
